HIERARCHY
ROOT SpineBase
{
  OFFSET 0.000000 0.000000 0.000000
  CHANNELS 6 Xposition Yposition Zposition Zrotation Xrotation Yrotation
  JOINT SpineMid
  {
    OFFSET 0.000000 32.730682 0.000000
    CHANNELS 3 Zrotation Xrotation Yrotation
    JOINT SpineShoulder
    {
      OFFSET 0.197161 24.285950 -0.791616
      CHANNELS 3 Zrotation Xrotation Yrotation
      JOINT Neck
      {
        OFFSET 0.126524 8.027601 -0.594568
        CHANNELS 3 Zrotation Xrotation Yrotation
        JOINT Head
        {
          OFFSET 3.373712 12.756705 3.980389
          CHANNELS 3 Zrotation Xrotation Yrotation
          End Site
          {
            OFFSET 0 0 0
          }
        }
      }
      JOINT ShoulderLeft
      {
        OFFSET -9.617262 -4.101420 -11.864002
        CHANNELS 3 Zrotation Xrotation Yrotation
        JOINT ElbowLeft
        {
          OFFSET -8.067039 -24.901907 -5.767020
          CHANNELS 3 Zrotation Xrotation Yrotation
          JOINT WristLeft
          {
            OFFSET -2.443497 -25.804770 -4.221465
            CHANNELS 3 Zrotation Xrotation Yrotation
            JOINT HandLeft
            {
              OFFSET -0.293486 -6.983885 -0.203737
              CHANNELS 3 Zrotation Xrotation Yrotation
              JOINT HandTipLeft
              {
                OFFSET -0.341096 -7.787087 1.128228
                CHANNELS 3 Zrotation Xrotation Yrotation
                End Site
                {
                  OFFSET 0 0 0
                }
              }
              JOINT ThumbLeft
              {
                OFFSET -2.448017 -0.383255 -1.060792
                CHANNELS 3 Zrotation Xrotation Yrotation
                End Site
                {
                  OFFSET 0 0 0
                }
              }
            }
          }
        }
      }
      JOINT ShoulderRight
      {
        OFFSET 12.490355 -3.978098 11.362902
        CHANNELS 3 Zrotation Xrotation Yrotation
        JOINT ElbowRight
        {
          OFFSET 5.856660 -24.790155 -12.887511
          CHANNELS 3 Zrotation Xrotation Yrotation
          JOINT WristRight
          {
            OFFSET 13.995173 -12.286630 -6.987042
            CHANNELS 3 Zrotation Xrotation Yrotation
            JOINT HandRight
            {
              OFFSET 3.798337 -0.472829 -3.169246
              CHANNELS 3 Zrotation Xrotation Yrotation
              JOINT HandTipRight
              {
                OFFSET -0.197277 -0.287191 -0.759158
                CHANNELS 3 Zrotation Xrotation Yrotation
                End Site
                {
                  OFFSET 0 0 0
                }
              }
              JOINT ThumbRight
              {
                OFFSET -0.196258 -0.176627 -3.129098
                CHANNELS 3 Zrotation Xrotation Yrotation
                End Site
                {
                  OFFSET 0 0 0
                }
              }
            }
          }
        }
      }
    }
  }
  JOINT HipLeft
  {
    OFFSET -4.589212 1.537900 -7.802611
    CHANNELS 3 Zrotation Xrotation Yrotation
    JOINT KneeLeft
    {
      OFFSET -4.484818 -36.810684 -0.794838
      CHANNELS 3 Zrotation Xrotation Yrotation
      JOINT AnkleLeft
      {
        OFFSET -2.776201 -36.877688 10.112350
        CHANNELS 3 Zrotation Xrotation Yrotation
        JOINT FootLeft
        {
          OFFSET 4.380091 -7.551081 -2.756540
          CHANNELS 3 Zrotation Xrotation Yrotation
          End Site
          {
            OFFSET 0 0 0
          }
        }
      }
    }
  }
  JOINT HipRight
  {
    OFFSET 5.595369 0.064753 0.631444
    CHANNELS 3 Zrotation Xrotation Yrotation
    JOINT KneeRight
    {
      OFFSET 2.584944 -37.529494 1.150901
      CHANNELS 3 Zrotation Xrotation Yrotation
      JOINT AnkleRight
      {
        OFFSET -9.697087 -37.165150 8.689751
        CHANNELS 3 Zrotation Xrotation Yrotation
        JOINT FootRight
        {
          OFFSET -0.064459 -7.051542 -8.006239
          CHANNELS 3 Zrotation Xrotation Yrotation
          End Site
          {
            OFFSET 0 0 0
          }
        }
      }
    }
  }
}
MOTION
Frames: 16
Frame Time: 0.033333
-52.290677 81.710699 357.996509 -0.000000 0.000000 -39.628835 -0.000000 0.000000 39.628835 -0.000000 0.000000 0.000000 -0.000000 0.000000 0.000000 0.000000 0.000000 0.000000 -0.000000 0.000000 0.000000 -0.000000 0.000000 0.000000 -0.000000 0.000000 0.000000 -0.000000 0.000000 0.000000 0.000000 0.000000 0.000000 0.000000 0.000000 0.000000 -0.000000 0.000000 0.000000 -0.000000 0.000000 0.000000 -0.000000 0.000000 0.000000 -0.000000 0.000000 0.000000 0.000000 0.000000 0.000000 0.000000 0.000000 0.000000 -0.000000 0.000000 39.628835 -0.000000 0.000000 0.000000 -0.000000 0.000000 0.000000 0.000000 0.000000 0.000000 -0.000000 0.000000 39.628835 -0.000000 0.000000 0.000000 -0.000000 0.000000 0.000000 0.000000 0.000000 0.000000
-51.111473 81.688940 357.890148 0.696357 -0.263376 -40.397207 -0.701011 -0.250723 40.397273 -0.000000 0.000000 0.000000 -0.000000 0.000000 0.000000 0.000000 0.000000 0.000000 1.170354 0.722142 -0.513315 1.981755 0.899176 -0.175296 1.655300 -0.569157 0.533502 0.273903 2.130593 0.694428 0.000000 0.000000 0.000000 0.000000 0.000000 0.000000 -1.036405 -8.645711 -1.654409 -0.725719 17.546329 12.365237 6.073081 -4.272423 -4.359772 7.994300 14.153513 -38.778040 0.000000 0.000000 0.000000 0.000000 0.000000 0.000000 -1.539141 -1.524551 40.467815 1.464362 0.424953 -0.088957 -0.320522 0.960002 0.675588 0.000000 0.000000 0.000000 -1.945772 -0.834387 40.369738 1.326335 -0.361660 0.019934 -0.175687 -1.227416 0.211379 0.000000 0.000000 0.000000
-50.049238 81.690861 357.788314 1.297419 -0.483987 -41.128095 -0.116179 0.094918 41.176305 -0.072487 0.065347 0.048460 -2.191103 0.189406 0.244894 0.000000 0.000000 0.000000 1.035388 1.550626 -1.061677 3.842624 1.742741 -0.393281 2.455235 -1.701770 1.173884 0.734648 4.558539 1.042444 0.000000 0.000000 0.000000 0.000000 0.000000 0.000000 -3.524486 -16.716135 -3.559835 -3.388983 33.083861 24.266127 10.069274 -9.248271 -7.130333 9.300251 12.359680 -50.796651 0.000000 0.000000 0.000000 0.000000 0.000000 0.000000 -2.812639 -2.901103 41.241644 2.730962 0.812657 -0.177852 -0.551093 1.764553 1.229766 0.000000 0.000000 0.000000 -3.534201 -1.809775 41.037513 2.555256 -0.474117 0.056198 -0.061719 -2.210399 0.091087 0.000000 0.000000 0.000000
-49.103972 81.716462 357.691007 1.804476 -0.662339 -41.822715 -0.150384 0.127082 41.892125 -0.092429 0.088303 0.068110 -3.002079 0.288963 0.318300 0.000000 0.000000 0.000000 1.498168 2.053043 -1.479761 5.510740 2.480750 -0.635070 2.727487 -3.252431 1.882271 1.110040 7.079441 1.086159 0.000000 0.000000 0.000000 0.000000 0.000000 0.000000 -5.373345 -23.731373 -5.402174 -7.620541 45.330748 35.510165 12.302762 -13.528453 -8.528934 8.988205 9.893005 -57.204082 0.000000 0.000000 0.000000 0.000000 0.000000 0.000000 -3.834868 -4.122216 41.960800 3.804947 1.164846 -0.263815 -0.688755 2.419325 1.662409 0.000000 0.000000 0.000000 -4.770183 -2.907971 41.638477 2.884983 0.182560 -0.225492 1.161171 -3.465130 -0.026550 0.000000 0.000000 0.000000
-48.275677 81.765745 357.598228 2.218612 -0.798858 -42.482234 -0.168500 0.149832 42.569979 -0.101722 0.104757 0.084851 -3.623676 0.392378 0.357057 0.000000 0.000000 0.000000 1.912794 2.374463 -1.810858 6.924327 3.072729 -0.879258 2.721465 -5.128552 2.622370 1.248340 9.602576 0.892148 0.000000 0.000000 0.000000 0.000000 0.000000 0.000000 -6.980442 -28.892283 -6.976703 -12.639950 53.996064 45.546354 13.138808 -16.691615 -9.093188 8.708526 8.078527 -61.488581 0.000000 0.000000 0.000000 0.000000 0.000000 0.000000 -4.618583 -5.182101 42.634236 4.691404 1.483324 -0.344473 -0.731271 2.929114 1.973777 0.000000 0.000000 0.000000 -5.658879 -4.113177 42.180923 3.646949 0.979311 -0.345642 2.143163 -4.369000 -0.610189 0.000000 0.000000 0.000000
-47.564351 81.838709 357.509975 2.540672 -0.893871 -43.107751 -0.170350 0.163697 43.210443 -0.100484 0.114689 0.098771 -4.056279 0.499870 0.360021 0.000000 0.000000 0.000000 2.273140 2.516787 -2.048388 8.033225 3.488561 -1.104509 2.614776 -7.282339 3.367308 1.072443 12.116102 0.534843 0.000000 0.000000 0.000000 0.000000 0.000000 0.000000 -8.079998 -31.905460 -8.024653 -16.935623 59.427149 53.087571 12.722211 -18.816022 -9.299659 9.020483 7.127361 -64.664676 0.000000 0.000000 0.000000 0.000000 0.000000 0.000000 -5.174926 -6.076081 43.269372 5.395037 1.769854 -0.417877 -0.676998 3.297622 2.164396 0.000000 0.000000 0.000000 -6.205094 -5.411643 42.674521 4.314430 2.139401 -0.491777 3.423592 -5.151225 -1.466004 0.000000 0.000000 0.000000
-46.952221 81.991140 357.491149 2.785909 -0.971416 -43.871296 -0.139796 0.159355 43.987187 -0.080501 0.117904 0.111658 -4.426681 0.779447 0.326219 0.000000 0.000000 0.000000 2.648768 2.322194 -2.145684 8.761832 3.637954 -1.328626 1.820270 -11.290741 4.308768 0.353464 16.160498 -0.224279 0.000000 0.000000 0.000000 0.000000 0.000000 0.000000 -8.233720 -32.955204 -8.554691 -19.141446 63.049036 57.143302 3.955608 -21.632492 -9.049235 16.728149 9.030145 -70.942461 0.000000 0.000000 0.000000 0.000000 0.000000 0.000000 -5.491529 -6.769797 44.045356 5.069803 2.609731 -0.711997 0.084726 2.612951 2.382664 0.000000 0.000000 0.000000 -5.998219 -7.114072 43.289812 4.672544 4.690356 -0.793316 5.474113 -5.784129 -2.736836 0.000000 0.000000 0.000000
-46.489046 82.190541 357.392495 2.898212 -0.954920 -44.314495 -0.080562 0.164745 44.436583 -0.044526 0.113625 0.120871 -4.545918 0.892125 0.267813 0.000000 0.000000 0.000000 3.099369 2.045461 -2.221187 8.902399 3.557366 -1.402019 1.350730 -13.905287 4.908986 -0.489070 19.058245 -0.678514 0.000000 0.000000 0.000000 0.000000 0.000000 0.000000 -6.909801 -29.316246 -7.531344 -12.654945 60.124580 48.695430 -11.896669 -24.967227 -16.668096 29.952455 16.881222 -72.872972 0.000000 0.000000 0.000000 0.000000 0.000000 0.000000 -5.476834 -7.283859 44.517161 4.938886 3.004890 -0.862377 0.580691 2.447841 2.410537 0.000000 0.000000 0.000000 -5.728353 -8.772105 43.591986 5.238400 6.970826 -1.014811 7.601556 -5.882267 -4.288991 0.000000 0.000000 0.000000
-46.112172 82.307157 357.288088 2.951330 -0.921931 -44.727831 -0.041033 0.154607 44.852600 -0.012108 0.104538 0.126473 -4.268432 1.001778 0.111394 0.000000 0.000000 0.000000 3.258462 1.654300 -2.148056 8.763957 3.482697 -1.474248 1.649394 -16.085537 5.379312 -0.817272 19.038345 -0.611158 0.000000 0.000000 0.000000 0.000000 0.000000 0.000000 -6.649587 -25.867211 -6.376651 -5.528083 57.506513 40.756218 -5.429113 -21.816703 -11.983785 26.431344 17.720718 -73.697196 0.000000 0.000000 0.000000 0.000000 0.000000 0.000000 -5.453950 -7.688400 44.948607 4.759097 3.312925 -1.001732 1.286609 2.342524 2.410111 0.000000 0.000000 0.000000 -5.457266 -10.227301 43.888379 5.788407 8.901539 -1.195038 9.486364 -6.439293 -5.642056 0.000000 0.000000 0.000000
-45.921093 82.348891 357.193408 2.874281 -0.873849 -45.061368 0.004089 0.150995 45.183386 0.022689 0.088086 0.127470 -3.789596 1.038514 -0.048553 0.000000 0.000000 0.000000 3.127058 1.307073 -1.977054 8.475597 3.053113 -1.440288 2.378252 -17.071286 5.517045 -1.786636 20.525707 -0.702777 0.000000 0.000000 0.000000 0.000000 0.000000 0.000000 -6.110866 -23.337331 -5.665589 -4.936543 53.717268 38.779361 19.154630 -14.644401 -11.181576 3.995404 10.606611 -64.104642 0.000000 0.000000 0.000000 0.000000 0.000000 0.000000 -5.287895 -7.807839 45.297736 4.649846 3.408676 -1.055096 1.466040 3.025439 2.832973 0.000000 0.000000 0.000000 -5.103471 -11.207178 44.151989 6.139301 10.232212 -1.306537 11.563526 -7.123668 -7.350439 0.000000 0.000000 0.000000
-45.763831 82.374900 357.099798 2.800680 -0.826172 -45.412356 0.017012 0.128677 45.530633 0.035542 0.069832 0.125671 -2.936947 0.689760 -0.210772 0.000000 0.000000 0.000000 2.898077 0.966195 -1.768469 8.907532 2.830182 -1.593130 -0.153327 -17.568836 5.206290 0.797723 20.492551 -1.101023 0.000000 0.000000 0.000000 0.000000 0.000000 0.000000 -5.807346 -21.130118 -5.001984 -4.029470 50.369756 36.669465 38.119093 -8.392867 -12.639365 -12.692761 0.914535 -59.883890 0.000000 0.000000 0.000000 0.000000 0.000000 0.000000 -5.157905 -7.912955 45.657748 4.619626 3.473521 -1.089245 1.783201 4.214391 3.442478 0.000000 0.000000 0.000000 -4.977523 -11.847250 44.448360 6.513067 10.761129 -1.330439 13.328175 -8.028353 -9.009580 0.000000 0.000000 0.000000
-45.635067 82.388842 357.033963 2.737551 -0.802501 -45.460751 0.013733 0.116741 45.575746 0.033637 0.056725 0.122929 -2.861286 0.684739 -0.205667 0.000000 0.000000 0.000000 2.493649 0.651136 -1.524428 9.214089 2.578049 -1.719163 -2.880577 -17.442312 4.683088 3.505273 20.203019 -1.496527 0.000000 0.000000 0.000000 0.000000 0.000000 0.000000 -5.466137 -18.532768 -4.256454 -3.885241 46.123468 34.897709 55.304526 -5.300573 -18.266227 -26.000565 -8.082825 -56.419446 0.000000 0.000000 0.000000 0.000000 0.000000 0.000000 -5.126724 -7.896207 45.703026 4.499561 3.567547 -1.127775 2.835729 4.824730 3.524804 0.000000 0.000000 0.000000 -5.125050 -12.076758 44.455712 6.767613 10.578729 -1.291261 15.022290 -8.613994 -10.789803 0.000000 0.000000 0.000000
-45.604403 82.368870 357.009040 2.623753 -0.820622 -45.291342 0.004159 0.127156 45.402021 0.023297 0.044229 0.118108 -3.642742 0.794997 0.072253 0.000000 0.000000 0.000000 2.361295 0.364733 -1.340649 8.853367 2.319054 -1.703739 -6.222413 -15.898879 3.817539 7.820699 18.703770 -1.864060 0.000000 0.000000 0.000000 0.000000 0.000000 0.000000 -5.466724 -18.476466 -4.183803 -6.686716 43.734362 36.270254 60.071659 -4.854771 -19.703771 -28.195456 -14.489854 -55.376126 0.000000 0.000000 0.000000 0.000000 0.000000 0.000000 -5.105217 -7.682925 45.527913 4.424002 3.492881 -1.116715 2.474347 5.437187 4.030938 0.000000 0.000000 0.000000 -5.282447 -11.893097 44.280311 6.787015 10.080991 -1.229603 15.684716 -8.549501 -11.591160 0.000000 0.000000 0.000000
-45.590291 82.335234 357.051302 2.524291 -0.901730 -45.021051 -0.009807 0.159523 45.129555 0.008448 0.039091 0.114094 -3.845230 0.791802 0.193372 0.000000 0.000000 0.000000 2.207656 0.122212 -1.165258 8.324739 2.038359 -1.650105 -8.763341 -14.122962 3.130214 10.767049 16.736146 -1.848017 0.000000 0.000000 0.000000 0.000000 0.000000 0.000000 -5.902135 -20.372200 -4.595378 -9.529996 43.638900 38.509237 58.410515 -3.671395 -17.134120 -25.460022 -15.249978 -57.184896 0.000000 0.000000 0.000000 0.000000 0.000000 0.000000 -5.204157 -7.391354 45.244310 4.433406 3.302822 -1.077968 1.731446 6.428340 4.829932 0.000000 0.000000 0.000000 -5.388961 -11.682432 44.015956 6.761809 9.922142 -1.218376 16.115367 -8.630534 -12.048418 0.000000 0.000000 0.000000
-45.600618 82.291451 357.128988 2.432384 -0.977426 -44.727711 -0.043210 0.183041 44.833412 -0.014782 0.032867 0.108939 -3.999389 0.640745 0.340854 0.000000 0.000000 0.000000 2.103920 -0.048547 -1.026301 7.621809 1.748541 -1.535030 -10.220210 -11.273873 2.572464 12.575694 13.564316 -1.303110 0.000000 0.000000 0.000000 0.000000 0.000000 0.000000 -6.865583 -24.191449 -5.516626 -13.021400 45.550254 42.395225 51.621442 -4.490825 -13.265284 -18.834239 -13.244426 -59.067769 0.000000 0.000000 0.000000 0.000000 0.000000 0.000000 -5.339734 -7.093892 44.931808 4.525226 2.998274 -1.014685 1.351875 8.016553 5.712073 0.000000 0.000000 0.000000 -5.428730 -11.423533 43.739370 6.582540 9.825456 -1.224588 16.534970 -8.876146 -12.368925 0.000000 0.000000 0.000000
-45.641395 82.252139 357.219042 2.326228 -1.043520 -44.547795 -0.077580 0.215801 44.649770 -0.046808 0.034766 0.102423 -4.086852 0.499529 0.463377 0.000000 0.000000 0.000000 2.085739 -0.217128 -0.911564 6.725639 1.598525 -1.400434 -10.676600 -9.044743 2.198886 13.722394 11.624236 -0.894959 0.000000 0.000000 0.000000 0.000000 0.000000 0.000000 -7.659941 -27.670928 -6.496372 -15.848852 48.256391 46.356199 44.299045 -6.914329 -10.715471 -12.459912 -10.698041 -60.595296 0.000000 0.000000 0.000000 0.000000 0.000000 0.000000 -5.408492 -6.793281 44.737983 4.546120 2.684695 -0.959522 1.139160 9.148015 6.281282 0.000000 0.000000 0.000000 -5.388321 -11.146394 43.583840 6.409851 9.784412 -1.236532 16.858357 -8.701685 -12.643090 0.000000 0.000000 0.000000
